<?xml version="1.0" encoding="utf-8"?>
<!-- Generator: Adobe Illustrator 21.0.2, SVG Export Plug-In . SVG Version: 6.00 Build 0)  -->
<svg version="1.1" id="Layer_1" xmlns="http://www.w3.org/2000/svg" xmlns:xlink="http://www.w3.org/1999/xlink" x="0px" y="0px"
	 viewBox="0 0 279 400" style="enable-background:new 0 0 279 400;" xml:space="preserve">
<style type="text/css">
	.st0{fill:#FFFFFF;}
</style>
<path class="st0" d="M211.2,163.2c-0.3-1.3-0.7-2.6-1.2-3.8c-6.4-18.9-21.2-32.5-41-37.5c-5.6-1.4-11.2-2.1-16.7-2
	c-11,0.2-21.4,3.2-29.4,8.7c-2.2,1.5-4.2,3.2-6,5.1c-0.6,0.6-1.2,1.2-1.9,1.6c2.6-25.4,24.1-45.2,50.1-45.2V75.7
	c-25,0-46.8,14.2-57.6,35.1c-3.9,7.6-6.4,15.9-7,24.8c-0.8-0.5-1.6-1.2-2.3-1.9C86,121,66.6,116,47,120.8
	c-20.9,5-36.9,20.3-42.8,40.7c-5.2,17.9-6,39.9-2.4,60c8.2,47.2,37,85.5,66.8,85.5c5.9,0,11.5-1.4,16.8-4.3c6.9-3.7,14.4-5.6,22-5.6
	c7.6,0,15.1,1.9,22,5.6c4.3,2.3,8.8,3.7,13.6,4.2c1.1,0.1,2.2,0.2,3.3,0.2c29.8,0,58.6-38.2,66.8-85.5
	C216.6,202.1,215.9,180.8,211.2,163.2"/>
</svg>
