<?xml version="1.0" encoding="utf-8"?>
<!-- Generator: Adobe Illustrator 21.0.2, SVG Export Plug-In . SVG Version: 6.00 Build 0)  -->
<svg version="1.1" id="Layer_1" xmlns="http://www.w3.org/2000/svg" xmlns:xlink="http://www.w3.org/1999/xlink" x="0px" y="0px"
	 viewBox="0 0 279 400" style="enable-background:new 0 0 279 400;" xml:space="preserve">
<style type="text/css">
	.st0{fill:#FFFFFF;}
</style>
<path class="st0" d="M190.2,140c-15-1-36,1.3-59.2,14.8c-0.7,0.4-1.5,0.2-1.9-0.5c-3.8-6.7-8-12.9-12.6-18.5
	c-0.1-0.1-0.2-0.2-0.3-0.3c3.5-3.1,7-6,10.7-8.6c2.2-1.6,4.5-3.2,6.8-4.6c6.8-4.2,13.9-7.6,21-10.1c6.8-2.4,13.8-4,20.9-4.9
	c0.5-0.1,1,0.1,1.3,0.5c7,8.9,11.6,20.5,14.7,30.4C191.9,139.2,191.1,140.1,190.2,140z M121.3,93.6c4.4,3.4,11.6,8.8,19,13.5
	c0.9,0.6,0.8,1.9-0.1,2.4c-3.6,1.8-7.2,3.7-10.7,5.9c-0.4,0.3-0.8,0.5-1.3,0.8c-0.7,0.4-1.6,0.2-1.9-0.5c-2.6-4.8-6.2-9.9-10.7-15.2
	c-0.4-0.5-0.4-1.2,0-1.8l4-4.9C119.9,93.2,120.7,93.1,121.3,93.6z M94.2,91.7c0.5-0.3,1.1-0.2,1.6,0.2c1.9,1.8,4.7,4.4,7.8,7.6
	c7.2,7.6,12.7,14.9,16,21.3c0.3,0.6,0.1,1.3-0.4,1.7c-2.5,1.9-5,4-7.5,6.1c-0.5,0.5-1.4,0.4-1.9-0.1c-9.8-10-21-17.9-33.4-23.5
	c-1-0.4-1.1-1.8-0.2-2.4C81.6,98.9,87.8,95,94.2,91.7z M45.4,105.3c0.3-0.5,0.8-0.7,1.3-0.6c3.4,0.4,9.2,1.5,16.4,3.8
	c0.6,0.4,1.3,0.6,2,0.7c0.6,0.2,1.2,0.4,1.7,0.6c15,5.7,28.3,14.7,39.4,26.8c1.4,1.5,2.6,3,3.9,4.4c4.4,5.4,8.5,11.4,12.1,17.9
	c0.3,0.6,0.2,1.4-0.4,1.8c-0.3,0.2-0.6,0.5-1,0.7c-3.7,2.6-7.3,5.5-10.9,8.6c-0.6,0.5-1.4,0.4-1.9-0.1c-3.8-4.1-9.3-9.5-16-14.6
	c-14.2-10.8-28.5-16.2-42.5-16.2c-8.1,0-13.6,0.1-18.3,0.5c-1,0.1-1.8-0.9-1.4-1.9C34,127.9,40,114.3,45.4,105.3z M2.2,211.5
	c0-22.6,5.4-49.1,7.3-58.1c0.1-0.5,0.5-0.9,1-1c4-1.1,7.2-2,10-2.7c8.4-2,13.2-2.4,29.1-2.4c12.2,0,24.8,4.9,37.5,14.5
	c6.8,5.1,12.2,10.6,15.8,14.6c-0.4,0.4-0.9,0.8-1.3,1.2c-6.7,6.7-12.3,14.1-16.6,22c-21.5,39.3-6.1,79.8-0.9,91.3
	c2.4,5.2,5.5,10.9,9,15.7c0.7,0.9,0,2.3-1.2,2.2c-2-0.2-4-0.4-5.9-0.6c-8-1-15.4-5.1-20.3-11.6c-6.2-8.1-11-16.4-14.8-24.5
	c-0.3-0.7,0-1.6,0.8-1.9c4.4-1.7,8-4.3,10.9-7.9c0.5-0.6,0.3-1.5-0.3-2l-4.4-3.2c-0.6-0.4-1.4-0.3-1.9,0.3c-2,2.4-4.6,4.2-7.7,5.3
	c-0.7,0.3-1.5-0.1-1.7-0.8c-4-10.8-6.4-21.1-7.7-29.9c-0.1-0.8,0.4-1.4,1.2-1.5c9.3-1.3,16.7-6.5,21.5-15.3c0.4-0.7,0.1-1.5-0.6-1.9
	l-4.9-2.5c-0.7-0.3-1.5-0.1-1.8,0.6c-3.5,6.2-8.6,9.9-15.1,10.8c-0.8,0.1-1.5-0.5-1.5-1.3c-0.6-8.1-0.3-13.9-0.1-16.4
	c0.1-0.7-0.5-1.4-1.2-1.5l-2.8-0.3l-2.7-0.3c-0.8-0.1-1.5,0.5-1.5,1.2c-0.2,2.6-0.6,8.5-0.1,16.7c0.1,0.9-0.8,1.7-1.7,1.4
	c-3.3-0.8-6.1-2.3-8.4-4.4c-0.5-0.5-1.4-0.5-1.9,0l-4,3.8c-0.6,0.5-0.6,1.5,0,2c3.3,3.1,8.4,6.3,15.9,7.3c0.6,0.1,1.1,0.5,1.2,1.1
	c1.2,9,3.4,19.6,7.5,30.8c0.3,0.9-0.4,1.9-1.4,1.8c-1.9-0.2-3.8-0.5-5.4-1.2c-0.7-0.3-1.5,0-1.8,0.7l-2.3,5c-0.3,0.7,0,1.6,0.7,1.8
	c3.3,1.3,6.9,2,10.8,2c0.8,0,1.6,0,2.5-0.1c0.6,0,1.1,0.3,1.3,0.8c3.6,8.1,8.2,16.3,14.1,24.5c0.8,1.1-0.4,2.6-1.7,2.1
	C6.8,278.8,2.2,229.4,2.2,211.5z M185.8,280.7c-14.4,14-32.6,21.2-47.8,24.9c-1.2,0.3-2.1-1-1.5-2.1c4.9-8,9-16.2,12.4-24.5
	c0.2-0.5,0.7-0.9,1.3-0.8c0.5,0,0.9,0,1.3,0c10.6,0,17.4-3.8,21.6-7.7c0.6-0.5,0.6-1.4,0-2l-3.9-3.8c-0.5-0.5-1.4-0.5-1.9,0
	c-3.3,2.9-7.6,4.7-12.8,5.1c-1,0.1-1.8-0.9-1.4-1.8c2.7-7.7,5-15.2,6.8-22.2c0.2-0.6,0.8-1.1,1.4-1c1.2,0.1,2.3,0.1,3.5,0.1
	c13,0,20.3-5.7,24-10.2c0.5-0.6,0.4-1.5-0.2-2l-4.4-3.3c-0.6-0.4-1.4-0.4-1.8,0.2c-3.2,3.7-8.8,7.3-18.6,7c-0.8,0-1.4-0.8-1.3-1.7
	c3.2-15,4.5-26.5,4.8-30.5c0.1-0.8-0.5-1.4-1.3-1.5l-5.5-0.4c-0.7-0.1-1.4,0.5-1.5,1.2c-0.4,3.7-1.6,15-4.8,29.7
	c-0.2,0.8-1.1,1.3-1.9,1c-6.6-2.6-10.7-7.7-12.2-15.3c-0.1-0.7-0.8-1.2-1.6-1.1l-5.4,0.8c-0.8,0.1-1.3,0.9-1.1,1.6
	c1.4,7.1,5.7,17.7,18.7,22.1c0.7,0.2,1.1,0.9,0.9,1.6c-2,7.5-4.4,15.6-7.5,23.8c-0.2,0.6-0.9,1-1.6,0.9c-8.6-1.9-13.9-7.3-15.8-15.9
	c-0.2-0.7-0.8-1.2-1.6-1.1l-5.4,0.9c-0.8,0.1-1.3,0.9-1.1,1.6c2.4,11.3,9.5,19,20.4,22c0.8,0.2,1.3,1.1,0.9,1.9
	c-3,6.9-6.5,13.8-10.4,20.3c-3.7,6.2-10.2,10.1-17.4,10.5c-2.1,0.1-3.6,0.1-4.5,0.1c-0.2,0-0.3,0-0.5-0.1
	c-2.8-1.3-9.6-8.3-15.8-21.8c-4.8-10.6-19-48,0.6-83.9c3.9-7.2,9-13.9,15.2-20.1c0.9-0.9,1.8-1.8,2.7-2.7l0.6-0.6
	c0.2-0.1,0.3-0.2,0.5-0.3c0.3-0.2,0.5-0.5,0.7-0.7c4.4-4.1,9-7.8,13.6-11.1c26.6-19,50.9-21.2,66.6-19.6c5.7,0.6,10.1,1.6,12.8,2.3
	c0.5,0.1,0.9,0.6,1,1.1c1.5,9.2,5.8,36.3,5.8,59.3C211.8,240.6,203.1,264,185.8,280.7z"/>
</svg>
