<svg xmlns="http://www.w3.org/2000/svg" viewBox="0 0 52.8 52.8"><defs><style>.cls-1{fill:#fff;}</style></defs><title>Asset 10ikon</title><g id="Layer_2" data-name="Layer 2"><g id="Layer_1-2" data-name="Layer 1"><path class="cls-1" d="M36,26.4,52.13,10.31a2.3,2.3,0,0,0,0-3.26L45.75.67a2.3,2.3,0,0,0-3.26,0L26.4,16.77,10.31.67A2.3,2.3,0,0,0,7,.67L.67,7a2.3,2.3,0,0,0,0,3.26L16.77,26.4.67,42.5a2.3,2.3,0,0,0,0,3.26L7,52.13a2.3,2.3,0,0,0,3.26,0L26.4,36,42.5,52.13a2.3,2.3,0,0,0,3.26,0l6.38-6.38a2.3,2.3,0,0,0,0-3.26Z"/></g></g></svg>