<?xml version="1.0" encoding="utf-8"?>
<!-- Generator: Adobe Illustrator 21.0.2, SVG Export Plug-In . SVG Version: 6.00 Build 0)  -->
<svg version="1.1" id="Layer_1" xmlns="http://www.w3.org/2000/svg" xmlns:xlink="http://www.w3.org/1999/xlink" x="0px" y="0px"
	 viewBox="0 0 338 400" style="enable-background:new 0 0 338 400;" xml:space="preserve">
<style type="text/css">
	.st0{fill:#FFFFFF;}
</style>
<path class="st0" d="M219.6,149.7c0,0-0.1,0-0.1,0c-1.9-0.1-2.6-2.6-1.1-3.8c10.4-7.9,24.9-26.3,24.9-63.2v-1.4c0-4-4.9-6-7.7-3
	l-0.9,1c-16.4,17.4-33,28.9-43,35c-5.8,3.5-12.4,5.4-19.2,5.4l-64.5,0c-6.8,0-13.4-1.9-19.2-5.4c-10.1-6.1-26.6-17.6-43-35l-0.9-1
	c-2.8-2.9-7.7-1-7.7,3v1.4c0,36.9,14.6,55.3,24.9,63.2c1.5,1.2,0.9,3.7-1.1,3.8c0,0-0.1,0-0.1,0H0c0,16.5,13.4,29.9,29.9,29.9
	c9.8,0,19.5-2.3,28.3-6.7c2.6-1.3,5.7,0.6,5.7,3.5v18.1v14.9c0,9,4,17,10.2,22.5c10.1,8.8,16.3,21.2,16.3,34.6v2.6h0v33.2
	c0,11.6,9.4,21.1,21.1,21.1h59.1c11.6,0,21.1-9.4,21.1-21.1l0-33.2c0-14.5,5.9-28.4,16.2-38.7c5.4-5.4,8.7-12.9,8.7-21.1v-14.9
	v-18.1c0-3,3.1-4.9,5.7-3.5c8.8,4.4,18.5,6.7,28.3,6.7c16.5,0,29.9-13.4,29.9-29.9H219.6z M80.8,124.5c-4.8,2.8-8.8,6.8-11.7,11.5
	c-0.6,1-2,1.2-2.9,0.4C60,131,51.5,120.1,48.3,99.8c-0.2-1.5,1.5-2.4,2.6-1.4c11.4,10.3,22,17.8,29.9,22.8
	C82.1,122,82.1,123.8,80.8,124.5z M83.8,204.5c0-8.3,6.7-14.9,14.9-14.9c8.3,0,14.9,6.7,14.9,14.9c0,8.3-6.7,14.9-14.9,14.9
	C90.5,219.4,83.8,212.7,83.8,204.5z M181.8,292.5c0,1.4-1.7,2.2-2.7,1.3c-2.5-2.2-6-3.4-9.7-2.9c-5.2,0.7-9.5,5-10.2,10.2
	c-0.5,3.7,0.7,7.2,2.9,9.7c0.9,1.1,0.2,2.7-1.3,2.7h-39.4c-1.4,0-2.2-1.7-1.3-2.7c2.2-2.5,3.4-6,2.9-9.7c-0.7-5.2-5-9.5-10.2-10.2
	c-3.7-0.5-7.2,0.7-9.7,2.9c-1.1,0.9-2.7,0.2-2.7-1.3v-21.7c0-0.9,0.7-1.7,1.7-1.7h78c0.9,0,1.7,0.7,1.7,1.7V292.5z M183.4,219.4
	c-8.3,0-14.9-6.7-14.9-14.9c0-8.3,6.7-14.9,14.9-14.9c8.3,0,14.9,6.7,14.9,14.9C198.4,212.7,191.7,219.4,183.4,219.4z M214.4,136.4
	c-0.9,0.8-2.3,0.6-2.9-0.4c-2.9-4.7-6.9-8.7-11.7-11.5c-1.3-0.7-1.3-2.5-0.1-3.3c7.9-5,18.5-12.5,29.9-22.8c1.1-1,2.9-0.1,2.6,1.4
	C229,120.1,220.5,131,214.4,136.4z"/>
</svg>
