<?xml version="1.0" encoding="utf-8"?>
<!-- Generator: Adobe Illustrator 21.0.2, SVG Export Plug-In . SVG Version: 6.00 Build 0)  -->
<svg version="1.1" id="Layer_1" xmlns="http://www.w3.org/2000/svg" xmlns:xlink="http://www.w3.org/1999/xlink" x="0px" y="0px"
	 viewBox="0 0 178 400" style="enable-background:new 0 0 178 400;" xml:space="preserve">
<style type="text/css">
	.st0{fill:#FFFFFF;}
</style>
<g>
	<g>
		<path class="st0" d="M56.2,118.2c-23.8-20.3-23.7-53.4-0.3-72.6C78.3,58.1,81.9,100.2,56.2,118.2z"/>
		<g>
			<path class="st0" d="M60.3,154.3c-2.4-31.2,21.1-54.5,51.1-51.5C118.4,127.4,91.2,159.7,60.3,154.3z"/>
			<path class="st0" d="M60.3,205.4c-2.4-31.2,21.1-54.5,51.1-51.5C118.4,178.5,91.2,210.8,60.3,205.4z"/>
			<path class="st0" d="M59.9,256.1c-2.8-31,20.2-53.9,50.1-50.5C117.3,230.1,90.7,261.8,59.9,256.1z"/>
			<path class="st0" d="M60.5,307.2c-2.8-31,20.2-53.9,50.1-50.5C117.9,281.2,91.3,312.9,60.5,307.2z"/>
		</g>
		<g>
			<path class="st0" d="M52.2,154.3c2.4-31.2-21.1-54.5-51.1-51.5C-5.9,127.4,21.3,159.7,52.2,154.3z"/>
			<path class="st0" d="M52.2,205.4c2.4-31.2-21.1-54.5-51.1-51.5C-5.9,178.5,21.3,210.8,52.2,205.4z"/>
			<path class="st0" d="M52.6,256.1c2.8-31-20.2-53.9-50.1-50.5C-4.7,230.1,21.8,261.8,52.6,256.1z"/>
			<path class="st0" d="M52,307.2c2.8-31-20.2-53.9-50.1-50.5C-5.3,281.2,21.2,312.9,52,307.2z"/>
		</g>
	</g>
	<rect x="50" y="319.6" class="st0" width="12.5" height="33.9"/>
</g>
</svg>
