<?xml version="1.0" encoding="utf-8"?>
<!-- Generator: Adobe Illustrator 21.0.2, SVG Export Plug-In . SVG Version: 6.00 Build 0)  -->
<svg version="1.1" id="Layer_1" xmlns="http://www.w3.org/2000/svg" xmlns:xlink="http://www.w3.org/1999/xlink" x="0px" y="0px"
	 viewBox="0 0 420 400" style="enable-background:new 0 0 420 400;" xml:space="preserve">
<style type="text/css">
	.st0{fill:#FFFFFF;}
</style>
<g>
	<path class="st0" d="M280.2,192.9c6.6,0,12.7-2.4,17.4-6.4c8.2-7,3.3-20.4-7.5-20.4h-16.2c-1.8,7.8-4.8,16.7-9.9,24.5
		C269.3,192.1,274.7,192.9,280.2,192.9z"/>
	<path class="st0" d="M234.2,178.2c-1.7,4.4-3.8,8.8-6.5,12.8c3.4,2.5,5.7,6.6,5.6,11.1c-0.1,7-6,12.9-13,13.1
		c-7.6,0.2-13.8-5.9-13.8-13.4c0-2.9,0.9-5.5,2.4-7.7c-3.9-4.9-6.7-10.4-8.8-16c-0.3-0.9-1.6-0.9-1.9,0c-2.9,7.6-7.2,15.2-13.5,21
		l-3.6,3.4l-3.6-3.4c-6.3-5.8-10.6-13.4-13.5-21c-0.3-0.9-1.6-0.9-1.9,0c-2,5.2-4.6,10.3-8.1,14.9c2,2.3,3.2,5.2,3.3,8.4
		c0.2,7.3-5.8,13.5-13,13.7c-7.6,0.2-13.8-5.9-13.8-13.4c0-4,1.8-7.6,4.5-10c-3-4.3-5.3-9-7.1-13.6c-0.3-0.9-1.6-0.9-1.9,0
		c-2.9,7.6-7.1,15.1-13.4,21v7.2c0,8.1,3.5,15.3,9.2,20.2c9.1,7.9,14.7,19.1,14.7,31.1v2.4h0v29.8c0,10.4,8.5,18.9,18.9,18.9h53.1
		c10.4,0,18.9-8.5,18.9-18.9V260c0-13.1,5.3-25.5,14.5-34.7c4.8-4.9,7.8-11.5,7.8-18.9v-7.1l-0.1-0.1c-6.3-5.8-10.6-13.4-13.5-21
		C235.8,177.3,234.6,177.3,234.2,178.2z M218.4,280.9c0,1.3-1.5,2-2.5,1.1c-2.3-2-5.4-3.1-8.7-2.6c-4.7,0.7-8.5,4.5-9.1,9.1
		c-0.5,3.3,0.6,6.5,2.6,8.7c0.8,1,0.1,2.5-1.1,2.5h-35.4c-1.3,0-2-1.5-1.1-2.5c2-2.3,3.1-5.4,2.6-8.7c-0.7-4.7-4.5-8.5-9.1-9.1
		c-3.3-0.5-6.4,0.6-8.7,2.6c-1,0.8-2.5,0.1-2.5-1.1v-19.4c0-0.8,0.7-1.5,1.5-1.5h70c0.8,0,1.5,0.7,1.5,1.5V280.9z"/>
	<path class="st0" d="M72.1,166.1c-10.5,0-15.7,13-8,20c4.7,4.3,11,6.8,17.9,6.8c5.4,0,10.8-0.8,16-2.3c-5.1-7.7-8.1-16.7-9.9-24.5
		H72.1z"/>
	<path class="st0" d="M9.5,111.1c13.8,7.5,37.9,16.1,78.1,19.1c0.8-3,1.8-5.9,3-8.7c-40.7-2.7-64.4-11.2-77.5-18.5
		c-3.7-2-8.1-1.3-10.9,1.9C-0.5,108-0.6,112.6,2,116c16,20.8,41.3,35.2,73,41.6c4.2,0.8,8.2,1.5,12,2c-0.6-3.7-0.9-6.9-1.1-9.3
		C62,146.8,29.9,137.1,9.5,111.1z"/>
	<path class="st0" d="M359.8,104.8c-2.7-3.2-7.2-4-10.9-1.9c-13.1,7.3-36.8,15.8-77.5,18.5c1.2,2.8,2.3,5.7,3,8.7
		c40.3-2.9,64.4-11.5,78.2-19.1c-20.4,26.1-52.5,35.7-76.4,39.3c-0.2,2.4-0.5,5.6-1.1,9.2c3.8-0.5,7.8-1.2,12-2
		c31.7-6.4,56.9-20.8,73-41.6C362.7,112.6,362.6,108,359.8,104.8z M353.3,110.7l-2.2-3.9L353.3,110.7
		C353.3,110.7,353.3,110.7,353.3,110.7z"/>
	<path class="st0" d="M263.9,130.8c-0.9-3.1-2.2-6-3.7-8.8c-10.1-18.7-32.5-30.5-61.2-30.5H163c-28.7,0-51.1,11.8-61.2,30.5
		c-1.5,2.8-2.7,5.7-3.7,8.8c-1.4,4.7-2.2,9.6-2.2,14.9c0,0.1,0,2.3,0.3,5.9c0.2,2.5,0.6,5.7,1.3,9.2c0.3,1.7,0.7,3.6,1.2,5.4
		c1.7,6.9,4.5,14.5,8.9,20.7c0.4,0.5,0.8,1.1,1.2,1.6c0.4-0.6,0.9-1.1,1.3-1.7c5.6-7.9,8.5-17.8,10-25.9c0.4-2.1,0.7-4,0.9-5.8
		c0.2-2,0.4-3.7,0.5-5.2c0.1-1.1,1-2,2.2-2h6.4c1.1,0,2.1,0.9,2.2,2c0.1,1.7,0.3,3.8,0.7,6.1c1.3,9.2,4.4,22.7,12,32.4
		c7.4-9.3,10.5-22.1,11.9-31.3c0.4-2.8,0.7-5.3,0.8-7.2c0.1-1.1,1-2,2.2-2h6.4c1.1,0,2.1,0.9,2.2,2c0.1,2,0.4,4.5,0.8,7.4
		c1.4,9.2,4.5,21.9,11.8,31.1c7.3-9.2,10.5-22,11.8-31.2c0.4-2.9,0.7-5.4,0.8-7.4c0.1-1.1,1-2,2.2-2h6.4c1.1,0,2.1,0.9,2.2,2
		c0.1,1.9,0.4,4.4,0.8,7.2c1.4,9.2,4.5,22,11.9,31.4c7.5-9.5,10.6-22.6,11.9-31.8c0.4-2.6,0.6-4.9,0.7-6.7c0.1-1.1,1-2,2.2-2h6.4
		c1.1,0,2.1,0.9,2.2,2c0.1,1.8,0.3,4,0.7,6.5c0.2,1.4,0.4,2.9,0.7,4.5c1.5,8.1,4.4,18.1,10,25.9c0.4,0.6,0.8,1.1,1.2,1.7
		c0.4-0.5,0.8-1.1,1.2-1.7c4.4-6.2,7.2-13.8,8.9-20.7c0.5-1.9,0.8-3.7,1.2-5.4c0.6-3.5,1-6.6,1.3-9.1c0.3-3.6,0.3-5.8,0.3-5.9
		C266.1,140.4,265.4,135.4,263.9,130.8z"/>
</g>
</svg>
