<?xml version="1.0" encoding="utf-8"?>
<!-- Generator: Adobe Illustrator 21.0.2, SVG Export Plug-In . SVG Version: 6.00 Build 0)  -->
<svg version="1.1" id="Layer_1" xmlns="http://www.w3.org/2000/svg" xmlns:xlink="http://www.w3.org/1999/xlink" x="0px" y="0px"
	 viewBox="0 0 233 400" style="enable-background:new 0 0 233 400;" xml:space="preserve">
<style type="text/css">
	.st0{fill:#FFFFFF;}
</style>
<g>
	<path class="st0" d="M166.6,159.1c-2.7-42.1-43.5-76.7-85-73.2c-47.9,4-82.7,43-78,88.1c0.9,8.8,2.6,17.7,5.5,26.1
		c14.1,41.1,38.8,75.5,66.1,109.2c5.2,6.3,14.8,6.3,20,0c28.6-35.2,54.7-71.1,67.9-114.7C166.4,183.4,167.3,170.8,166.6,159.1z
		 M85,214.2c-24.1,0-43.6-19.5-43.6-43.6s19.5-43.6,43.6-43.6s43.6,19.5,43.6,43.6S109.1,214.2,85,214.2z"/>
</g>
</svg>
