<?xml version="1.0" encoding="utf-8"?>
<!-- Generator: Adobe Illustrator 21.0.2, SVG Export Plug-In . SVG Version: 6.00 Build 0)  -->
<svg version="1.1" id="Layer_1" xmlns="http://www.w3.org/2000/svg" xmlns:xlink="http://www.w3.org/1999/xlink" x="0px" y="0px"
	 viewBox="0 0 264 400" style="enable-background:new 0 0 264 400;" xml:space="preserve">
<style type="text/css">
	.st0{fill:#FFFFFF;}
</style>
<g>
	<path class="st0" d="M177.7,188.3L177.7,188.3c-0.1-0.1-0.1-0.1-0.2-0.2c-8.2-10.2,8.5-19.5,13.4-31.6c5.7-14-5.4-33.5-6.9-59.1
		c-0.5-8.6-11.7-11.6-16.4-4.3c-7.2,11.3-14.4,24.5-21.1,33.6c-0.9,1.2-2.7,1.4-3.9,0.4c-12.1-10.3-27.7-16.4-44.4-16.4
		c-16.7,0-32.3,6.1-44.4,16.4c-1.2,1-2.9,0.8-3.9-0.4c-6.8-9-13.9-22.2-21.1-33.6c-4.7-7.3-15.9-4.4-16.4,4.3
		C11.1,123,0,142.5,5.7,156.5c4.9,12.1,21.5,21.4,13.4,31.6c-0.1,0.1-0.1,0.1-0.2,0.2l0,0c-10.1,15.6-18.6,38.4-18.6,57v0
		C0.3,283.8,31.5,315,70,315h28.3h28.3c38.5,0,69.7-31.2,69.7-69.7v0C196.3,226.7,187.9,203.9,177.7,188.3z M130.4,172.8
		c6.3,0,11.3,5.1,11.3,11.3c0,6.3-5.1,11.3-11.3,11.3c-6.3,0-11.3-5.1-11.3-11.3C119.1,177.9,124.2,172.8,130.4,172.8z M77.5,184.2
		c0,6.3-5.1,11.3-11.3,11.3c-6.3,0-11.3-5.1-11.3-11.3c0-6.3,5.1-11.3,11.3-11.3C72.5,172.8,77.5,177.9,77.5,184.2z M98.3,275.8
		c-25.3,0-45.7-10.9-45.7-33.7c0-22.7,20.5-35.2,45.7-35.2c25.3,0,45.7,12.4,45.7,35.2C144.1,264.9,123.6,275.8,98.3,275.8z"/>
	<circle class="st0" cx="120.3" cy="240.6" r="11.3"/>
	<circle class="st0" cx="76.3" cy="240.6" r="11.3"/>
</g>
</svg>
