<?xml version="1.0" encoding="utf-8"?>
<!-- Generator: Adobe Illustrator 21.0.2, SVG Export Plug-In . SVG Version: 6.00 Build 0)  -->
<svg version="1.1" id="Layer_1" xmlns="http://www.w3.org/2000/svg" xmlns:xlink="http://www.w3.org/1999/xlink" x="0px" y="0px"
	 viewBox="0 0 309 400" style="enable-background:new 0 0 309 400;" xml:space="preserve">
<style type="text/css">
	.st0{fill:#FFFFFF;}
</style>
<g>
	<path class="st0" d="M184,123.4c-6.4,0-11.6-5.1-11.6-11.4s5.2-11.4,11.6-11.4c6.4,0,11.6,5.1,11.6,11.4S190.4,123.4,184,123.4
		 M160.8,167c-6.4,0-11.6-5.1-11.6-11.4c0-6.3,5.2-11.4,11.6-11.4c6.4,0,11.6,5.1,11.6,11.4C172.4,161.9,167.2,167,160.8,167
		 M133.3,134.8c-6.4,0-11.6-5.1-11.6-11.4c0-6.3,5.2-11.4,11.6-11.4c6.4,0,11.6,5.1,11.6,11.4C144.9,129.7,139.7,134.8,133.3,134.8
		 M95.8,167c-6.4,0-11.6-5.1-11.6-11.4c0-6.3,5.2-11.4,11.6-11.4c6.4,0,11.6,5.1,11.6,11.4C107.4,161.9,102.2,167,95.8,167
		 M239.1,138.4c0,0-13.1-49.6-59.1-58c-31.8-6-62.2,15.4-62.2,15.4c-30.3,16.4-72.8,89.7-72.8,89.7c-44.5,49.6-44,62-44,62
		c-6.6,56,33.4,63.5,33.4,63.5c36.9,11.4,78.8,0,78.8,0s55.1-12.4,99.6-66.9C257.8,189.5,239.1,138.4,239.1,138.4"/>
</g>
</svg>
