<?xml version="1.0" encoding="utf-8"?>
<!-- Generator: Adobe Illustrator 21.0.2, SVG Export Plug-In . SVG Version: 6.00 Build 0)  -->
<svg version="1.1" id="Layer_1" xmlns="http://www.w3.org/2000/svg" xmlns:xlink="http://www.w3.org/1999/xlink" x="0px" y="0px"
	 viewBox="0 0 317 400" style="enable-background:new 0 0 317 400;" xml:space="preserve">
<style type="text/css">
	.st0{fill:#FFFFFF;}
</style>
<g>
	<path class="st0" d="M257.1,186.2L255,186c-10.1-1.2-20.1-8.1-28.1-15.3c2.4-4.2,3.7-9,3.7-14.1c0-12.7-8.2-23.5-19.7-27.3
		c0.6-2,0.9-4.1,0.9-6.3c0-12.6-10.2-22.8-22.8-22.8c-4.5,0-8.7,1.3-12.2,3.5c-3.2-12.4-14.5-21.6-27.9-21.6c-10,0-18.8,5.1-24,12.9
		c-5.2-7.8-14-12.9-24-12.9c-13.1,0-24.2,8.8-27.7,20.8c-1.5-0.3-3-0.5-4.5-0.5c-12.6,0-22.8,10.2-22.8,22.8c0,1.6,0.2,3.1,0.5,4.6
		c-10.5,4.3-17.9,14.6-17.9,26.7c0,5.2,1.4,10,3.7,14.2c-8,7.2-18,14.1-28.1,15.3l-2.1,0.3c-1.4,0.2-2.3,1.6-1.8,2.9l0.7,2
		c0.4,1,9,23.4,42.8,23.4c4.5,0,9.3-0.7,14.2-2.1c1.3-0.4,2.6,0.5,2.7,1.8c2.3,26.1,7.5,47.8,15.5,64.4c12.3,25.7,31,38.7,55.5,38.7
		c23.1,0,40.7-13,52.3-38.8c7.5-16.6,12.4-38.2,14.5-64.3c0.1-1.3,1.4-2.2,2.7-1.9c4.9,1.4,9.7,2,14.1,2c33.8,0,42.5-22.4,42.8-23.4
		l0.7-2C259.3,187.8,258.5,186.4,257.1,186.2z M246.7,194.9c-4.7,5.3-14.1,11.9-31.4,11.9c-5.7,0-12-1.3-18.7-4l-2.1-0.8
		c-1.4-0.5-2.9,0.4-3,1.9l-0.1,2.3c-5.2,85.6-35.4,103.5-59.8,103.5c-26.1,0-58.4-18-63.9-103.5l-0.1-2.3c-0.1-1.5-1.6-2.4-3-1.9
		l-2.1,0.8c-6.7,2.6-13,4-18.7,4c-17.3,0-26.7-6.6-31.4-11.9c-1-1.1-0.5-2.9,0.9-3.3c8.7-3,16.8-8.8,23.5-14.8
		c5.2,5.3,12.4,8.5,20.4,8.5c12,0,22.3-7.4,26.6-17.8c3.2,12.4,14.5,21.6,27.9,21.6c12.2,0,22.6-7.6,26.8-18.3
		c5.2,7.4,13.8,12.2,23.5,12.2c7.1,0,13.6-2.6,18.6-6.8c5.3,5.7,12.8,9.3,21.1,9.3c8,0,15.2-3.3,20.4-8.5c6.7,6,14.8,11.8,23.5,14.8
		C247.2,192.1,247.7,193.8,246.7,194.9z"/>
	<circle class="st0" cx="160.3" cy="217.5" r="12.2"/>
	<circle class="st0" cx="98.9" cy="217.5" r="12.2"/>
</g>
</svg>
