<?xml version="1.0" encoding="utf-8"?>
<!-- Generator: Adobe Illustrator 21.0.2, SVG Export Plug-In . SVG Version: 6.00 Build 0)  -->
<svg version="1.1" id="Layer_1" xmlns="http://www.w3.org/2000/svg" xmlns:xlink="http://www.w3.org/1999/xlink" x="0px" y="0px"
	 viewBox="0 0 294 400" style="enable-background:new 0 0 294 400;" xml:space="preserve">
<style type="text/css">
	.st0{fill:#FFFFFF;}
</style>
<g>
	<g>
		<path class="st0" d="M227.9,209.5c0-83.4-58.4-75.1-74-75.1c-8.4,0-17.1,1.9-24.2,4.1c-10.2,3.1-21.2,3.1-31.4,0
			c-7.1-2.2-15.7-4.1-24.2-4.1c-15.6,0-74-8.3-74,75.1C0,270.1,33.4,318.8,112.1,320l0,0c0.6,0,1.2,0,1.8,0c0.6,0,1.2,0,1.8,0v0
			C194.5,318.8,227.9,270.1,227.9,209.5z M74.1,291.4c-27.9,0-51.1-40.7-51.1-86s30.2-48.8,43-48.8c13.9,0,30.2,10.5,30.2,27.9
			c0,27.9-20.9,26.7-20.9,41.8c0,25.6,23.2,13.9,23.2,44.1C98.5,286.8,85.8,291.4,74.1,291.4z M153.7,291.4
			c-11.6,0-24.4-4.6-24.4-20.9c0-30.2,23.2-18.6,23.2-44.1c0-15.1-20.9-13.9-20.9-41.8c0-17.4,16.3-27.9,30.2-27.9
			c12.8,0,43,3.5,43,48.8S181.6,291.4,153.7,291.4z"/>
		<path class="st0" d="M176,220.4c0,0-0.1,0-0.1,0c-2.9,0-7.2,1-10.3,2.8c-1.9,1.1-1.9,4,0,5.1c3,1.7,7.3,2.8,10.3,2.8
			c0,0,0.1,0,0.1,0C182.9,231,182.9,220.5,176,220.4z"/>
		<path class="st0" d="M161.3,204.7c-1.4,1.7-0.4,4.4,1.8,4.7c3.5,0.5,7.9,0,10.6-1.1c0,0,0.1,0,0.1,0c6.4-2.5,2.7-12.4-3.8-10
			c0,0-0.1,0-0.1,0C167.1,199.4,163.5,201.9,161.3,204.7z"/>
		<path class="st0" d="M173.8,243.2c0,0-0.1,0-0.1,0c-2.7-1-7.1-1.6-10.6-1.1c-2.2,0.3-3.2,3-1.8,4.7c2.2,2.7,5.9,5.2,8.6,6.3
			c0,0,0.1,0,0.1,0C176.5,255.6,180.2,245.8,173.8,243.2z"/>
		<path class="st0" d="M153.8,192.4c3.4-0.7,7.3-2.8,9.5-4.8c0,0,0.1-0.1,0.1-0.1c5.1-4.7-2-12.5-7.1-7.9c0,0-0.1,0.1-0.1,0.1
			c-2.2,2-4.7,5.6-5.8,9C149.7,190.8,151.6,192.9,153.8,192.4z"/>
		<path class="st0" d="M163.3,263.9c-2.2-2-6.1-4.1-9.5-4.8c-2.2-0.5-4.1,1.6-3.4,3.8c1.1,3.3,3.6,7,5.8,9c0,0,0.1,0.1,0.1,0.1
			C161.4,276.5,168.5,268.7,163.3,263.9C163.4,264,163.3,263.9,163.3,263.9z"/>
		<path class="st0" d="M52,231.1c2.9,0,7.2-1,10.3-2.8c1.9-1.1,1.9-4,0-5.1c-3-1.7-7.3-2.8-10.3-2.8c0,0-0.1,0-0.1,0
			c-6.9,0.1-6.9,10.6,0,10.7C51.9,231.1,51.9,231.1,52,231.1z"/>
		<path class="st0" d="M54.1,208.3c0,0,0.1,0,0.1,0c2.7,1,7.1,1.6,10.6,1.1c2.2-0.3,3.2-3,1.8-4.7c-2.2-2.7-5.9-5.2-8.6-6.3
			c0,0-0.1,0-0.1,0C51.4,195.9,47.6,205.8,54.1,208.3z"/>
		<path class="st0" d="M66.6,246.9c1.4-1.7,0.4-4.4-1.8-4.7c-3.5-0.5-7.9,0-10.6,1.1c0,0-0.1,0-0.1,0c-6.4,2.5-2.7,12.4,3.8,10
			c0,0,0.1,0,0.1,0C60.7,252.1,64.4,249.6,66.6,246.9z"/>
		<path class="st0" d="M64.6,187.6c2.2,2,6.1,4.1,9.5,4.8c2.2,0.5,4.1-1.6,3.4-3.8c-1.1-3.3-3.6-7-5.8-9c0,0-0.1-0.1-0.1-0.1
			C66.4,175,59.4,182.9,64.6,187.6C64.5,187.6,64.5,187.6,64.6,187.6z"/>
		<path class="st0" d="M74.1,259.1c-3.4,0.7-7.3,2.8-9.5,4.8c0,0-0.1,0.1-0.1,0.1c-5.1,4.7,2,12.5,7.1,7.9c0,0,0.1-0.1,0.1-0.1
			c2.2-2,4.7-5.6,5.8-9C78.2,260.8,76.3,258.6,74.1,259.1z"/>
	</g>
	<g>
		<path class="st0" d="M128,130.5c2.8-2.7,6.3-5,10.3-6.7c4-1.7,8.4-2.8,13.1-3.1l0,0c1.1-0.1,2-0.9,1.8-1.9c-0.1-0.8-1-1.4-1.9-1.4
			c-5.1-0.3-10.4,0.2-15.5,1.6c-2.8,0.7-5.5,1.8-8,3c-0.8,0.4-1.7-0.5-1.3-1.3c1.5-3.2,3.2-6.3,5.2-9.2c0.7-1,1.4-2,2-3
			c0.7-1,1.5-1.9,2.2-2.9c1.5-1.9,3.2-3.8,4.9-5.4l0.1-0.1c0.9-0.9,0.8-2.2-0.4-3c-1-0.7-2.5-0.6-3.4,0.2c-2.2,1.7-4.2,3.4-6.1,5.3
			c-1,0.9-1.9,1.9-2.8,2.8c-0.9,1-1.8,1.9-2.6,2.9c-2,2.2-3.8,4.6-5.5,7c-0.5,0.8-1.7,0.4-1.8-0.5l-1.8-22.3c-0.1-1.1-1.3-2-2.7-1.9
			c-1.3,0.1-2.2,1-2.3,2l-1.8,22.2c-0.1,0.9-1.3,1.3-1.8,0.5c-1.7-2.4-3.5-4.7-5.5-7c-0.9-1-1.8-1.9-2.6-2.9
			c-0.9-0.9-1.8-1.9-2.8-2.8c-1.9-1.9-3.9-3.6-6.2-5.3c-1-0.8-2.8-0.8-3.7,0.2c-0.7,0.7-0.7,2,0.1,2.7l0,0c1.7,1.6,3.3,3.5,4.9,5.4
			c0.8,0.9,1.5,1.9,2.2,2.9c0.7,1,1.4,2,2,3c2,3,3.7,6.1,5.2,9.2c0.4,0.9-0.5,1.7-1.3,1.3c-2.6-1.2-5.3-2.3-8-3
			c-5.1-1.4-10.4-1.9-15.5-1.6c-1.2,0.1-2.2,1.1-1.8,2.2c0.2,0.6,1,1.1,1.8,1.1l0,0c4.6,0.3,9.1,1.4,13.1,3.1c4,1.7,7.5,4,10.3,6.7
			c0,0,0,0,0,0c2.4,2.4,5.9,3.8,9.7,3.8h8.7C122,134.3,125.5,132.9,128,130.5C128,130.5,128,130.5,128,130.5z"/>
	</g>
</g>
</svg>
