<?xml version="1.0" encoding="utf-8"?>
<!-- Generator: Adobe Illustrator 21.0.2, SVG Export Plug-In . SVG Version: 6.00 Build 0)  -->
<svg version="1.1" id="Layer_1" xmlns="http://www.w3.org/2000/svg" xmlns:xlink="http://www.w3.org/1999/xlink" x="0px" y="0px"
	 viewBox="0 0 247 400" style="enable-background:new 0 0 247 400;" xml:space="preserve">
<style type="text/css">
	.st0{fill:#FFFFFF;}
</style>
<g>
	<path class="st0" d="M179.6,254.4l-39.1-45.9c7.7-3.5,14.8-7.8,21.1-12.7c0.3-0.2,0.5-0.6,0.6-1c0-0.4-0.1-0.8-0.3-1.1L122.2,147
		c8.2-3,15.5-7,21.8-11.9c0.3-0.2,0.5-0.6,0.6-1c0-0.4-0.1-0.8-0.3-1.1L91,70.5c-0.6-0.7-1.7-0.7-2.3,0L35.6,133
		c-0.3,0.3-0.4,0.7-0.3,1.1c0,0.4,0.2,0.8,0.6,1c6.3,4.9,13.6,8.9,21.8,11.9l-39.7,46.7c-0.3,0.3-0.4,0.7-0.3,1.1
		c0,0.4,0.2,0.8,0.6,1c6.3,4.9,13.4,9.2,21.1,12.7L0.1,254.4c-0.3,0.3-0.4,0.7-0.3,1.1c0,0.4,0.2,0.8,0.6,1
		c24.7,19.3,57.1,29,89.5,29s64.8-9.7,89.5-29c0.3-0.2,0.5-0.6,0.6-1C180,255.1,179.9,254.7,179.6,254.4z"/>
	<path class="st0" d="M104.2,292.4c-9.5,0.9-19.2,0.9-28.7,0c-2.2-0.2-4.1,1.5-4.1,3.7v27.5c0,2.9,2.3,5.2,5.2,5.2h26.5
		c2.9,0,5.2-2.3,5.2-5.2v-27.5C108.3,293.9,106.4,292.2,104.2,292.4z"/>
</g>
</svg>
