<svg xmlns="http://www.w3.org/2000/svg" viewBox="0 0 165.27 69.96"><defs><style>.cls-1{fill:#fff;}</style></defs><title>Asset 9ikon</title><g id="Layer_2" data-name="Layer 2"><g id="Layer_2-2" data-name="Layer 2"><path class="cls-1" d="M16.79,19.12c0-4.29,3.26-7.55,9.33-7.55A13.76,13.76,0,0,1,38.24,18L49,9.89C43.47,4.2,37.12,0,26,0,12.87,0,3.36,8.67,3.36,19.59c0,13.06,10.17,16.6,19.31,19.4,7.28,2.24,14.08,4,14.08,9.61,0,4.66-3.55,9-10.17,9-6.06,0-11.38-3.36-14.74-9.14L0,57.74C6.16,64.73,14.36,70,26.68,70c15,0,23.6-10.45,23.6-21.27,0-13.06-10.45-17.16-19.68-20.15-7.27-2.43-13.81-4.2-13.81-9.42"/><polygon class="cls-1" points="99.42 56.62 70.77 56.62 70.77 0.93 57.8 0.93 57.8 69.02 99.42 69.02 99.42 56.62"/><path class="cls-1" d="M112.29,35c0-12.5,9.42-22.2,22.11-22.2,8.68,0,14.65,4.29,18.47,11.38l11.38-7.28A34.4,34.4,0,0,0,134.4,0c-19.68,0-35,14.64-35,35,0,19.4,13.9,35,35,35,13.53,0,24.9-7.84,30.87-19.4l-11.85-6.25C150,51.58,143.44,57,134.11,57a21.6,21.6,0,0,1-21.82-22"/></g></g></svg>